<svg width="55" height="59" viewBox="0 0 55 59" fill="none" xmlns="http://www.w3.org/2000/svg">
<path d="M33 48.4971H22C21.241 48.4971 20.625 49.1131 20.625 49.8721C20.625 50.6311 21.241 51.2471 22 51.2471H33C33.759 51.2471 34.375 50.6311 34.375 49.8721C34.375 49.1131 33.759 48.4971 33 48.4971ZM33 52.0559H22C21.241 52.0559 20.625 52.6719 20.625 53.4309C20.625 54.1899 21.241 54.8059 22 54.8059H33C33.759 54.8059 34.375 54.1899 34.375 53.4309C34.375 52.6719 33.759 52.0559 33 52.0559ZM30.4943 57.7184C31.4442 57.0926 31.0011 55.6147 29.8636 55.6147H25.1385C24.001 55.6147 23.5581 57.0929 24.5083 57.7183V57.7183C24.5557 57.7495 24.6003 57.7847 24.6442 57.8207C25.0649 58.1661 25.6567 58.3647 26.2708 58.3647H28.732C29.3436 58.3647 29.9377 58.166 30.3587 57.8205C30.4025 57.7846 30.447 57.7496 30.4943 57.7184V57.7184ZM44 26.4027C44 34.9801 38.7322 38.1665 37.4039 44.0024C37.0684 45.4764 35.8772 46.7176 34.3656 46.7176V46.7176C32.8557 46.7176 31.5936 45.4916 31.7076 43.986C31.9116 41.2913 32.5907 40.4007 34.4245 37.2157C36.5172 33.572 38.5 30.129 38.5 26.4027C38.5 19.2747 32.7938 16.0297 27.4918 16.0297C22.198 16.0297 16.5 19.2747 16.5 26.4027C16.5 30.129 18.4828 33.572 20.5755 37.2157C22.4099 40.4018 23.0905 41.2919 23.2924 43.9887C23.405 45.4934 22.1433 46.7176 20.6345 46.7176V46.7176C19.1228 46.7176 17.9316 45.4764 17.5961 44.0023C16.2678 38.1665 11 34.9801 11 26.4027C11 16.1645 19.2445 10.5297 27.4918 10.5297C35.7445 10.5297 44 16.17 44 26.4027ZM53.1131 24.5032C54.1551 24.5028 55 25.3474 55 26.3894V26.3894C55 27.4311 54.1556 28.2755 53.1139 28.2755H49.8968C48.8888 28.2755 48.125 27.4107 48.125 26.4027V26.4027V26.4027C48.125 25.3784 48.9048 24.5049 49.9292 24.5045L53.1131 24.5032ZM27.4918 6.40475C26.5359 6.40475 25.718 5.66171 25.718 4.70581V1.88512C25.718 0.843999 26.562 0 27.6031 0V0C28.6443 0 29.4882 0.843999 29.4882 1.88512V4.50149C29.4882 5.57522 28.5655 6.40475 27.4918 6.40475V6.40475V6.40475ZM17.0536 9.05994C16.1591 9.5459 15.0092 9.26511 14.5282 8.36788L13.4552 6.3663C12.9634 5.44885 13.3082 4.30642 14.2256 3.81435V3.81435C15.143 3.3222 16.2857 3.66696 16.7779 4.58441L17.8502 6.58317C18.3283 7.47435 17.9423 8.57717 17.0536 9.05994V9.05994ZM45.4588 16.2217C44.9797 15.412 45.1563 14.3664 45.9206 13.8178L48.3436 12.0785C49.1901 11.4709 50.3691 11.665 50.976 12.512V12.512C51.5825 13.3583 51.3883 14.536 50.5422 15.1428L48.1246 16.8765C47.2478 17.5053 46.0082 17.1503 45.4588 16.2217V16.2217ZM37.944 9.06283C37.0557 8.5809 36.6686 7.47821 37.1465 6.58773L38.2219 4.58393C38.7142 3.6667 39.8568 3.3221 40.7741 3.81419V3.81419C41.6916 4.30632 42.0364 5.44897 41.5443 6.36644L40.4702 8.36915C39.9888 9.26687 38.8394 9.5486 37.944 9.06283V9.06283ZM9.53792 16.2222C8.98952 17.1503 7.75084 17.5067 6.87459 16.8787L4.45594 15.1454C3.60945 14.5388 3.41499 13.3608 4.0216 12.5143V12.5143C4.62842 11.6674 5.80696 11.4732 6.6535 12.0804L9.07398 13.8166C9.83942 14.3656 10.0171 15.4112 9.53792 16.2222V16.2222ZM45.5386 36.8613C45.9587 35.9655 47.0071 35.5086 47.9241 35.8802L50.9935 37.1241C51.958 37.515 52.4234 38.6135 52.0332 39.5783V39.5783C51.6427 40.544 50.5431 41.01 49.5777 40.619L46.502 39.3735C45.515 38.9738 45.0863 37.8254 45.5386 36.8613V36.8613ZM9.38341 36.6991C9.82078 37.6328 9.4272 38.7407 8.48696 39.1638L5.46041 40.5255C4.51041 40.9529 3.39381 40.5289 2.96693 39.5787V39.5787C2.54029 38.629 2.96413 37.5132 3.91369 37.0863L6.92208 35.7339C7.85312 35.3153 8.95038 35.7747 9.38341 36.6991V36.6991ZM6.875 26.4027C6.875 27.4107 6.11116 28.2755 5.10318 28.2755H1.8865C0.844613 28.2755 0 27.4309 0 26.389V26.389C0 25.3471 0.844615 24.5025 1.8865 24.5025H5.06803C6.09377 24.5025 6.875 25.377 6.875 26.4027V26.4027V26.4027Z" fill="white"/>
</svg>
